<?xml version="1.0" encoding="UTF-8"?>
<svg id="Layer_1" xmlns="http://www.w3.org/2000/svg" version="1.1" viewBox="0 0 170.1628218 44.6266921">
  <!-- Generator: Adobe Illustrator 29.1.0, SVG Export Plug-In . SVG Version: 2.1.0 Build 142)  -->
  <path d="M24.5420467,14.2474673c-.1886781-3.2640488-2.6362299-5.1471246-6.778768-5.1471246-3.5777851,0-5.6487425,1.380696-5.6487425,3.7031203,0,1.1299909.5016179,1.9456914,1.506239,2.4481059,1.1922603.5649955,1.7570133.7531541,8.2224953,2.3852824,4.7074643,1.1925027,7.7831121,2.3224243,9.7912806,3.6403315,3.2642912,2.1340233,4.9591737,5.3983145,4.9591737,9.4157252,0,8.7243902-6.7786988,13.9337841-18.2026272,13.9337841C7.0927468,44.6266921.1878816,38.9779497,0,29.4998858h10.9845452c.2507397,4.6449179,2.6990187,6.6536753,8.0966406,6.6536753,4.205327,0,6.4026585-1.4432077,6.4026585-4.2055694,0-2.6992958-1.1304758-3.3899035-9.9799934-5.9000017-6.2770809-1.7582601-8.5364393-2.7623617-10.7335977-4.5823716-2.0714769-1.7577406-3.2009137-4.6449179-3.2009137-8.0968484C1.5693395,5.6484815,8.2221836.6266921,18.4533669.6266921c10.2316682,0,16.2567972,4.9587235,16.4454754,13.6208098h-10.3567956v-.0000346Z"/>
  <path d="M66.2564367,31.6337013c-1.1299563,8.0348215-6.7792183,12.7417663-15.2534229,12.7417663-9.6036068,0-16.0055381-6.3393502-16.0055381-15.6918018,0-9.7915231,6.4019312-16.2564855,16.0686039-16.2564855,8.4736852,0,14.3737214,4.6449179,14.9391671,11.7999687h-9.6661878c-.4393486-2.8241115-2.3229438-4.5193403-5.0843358-4.5193403-3.9548297,0-6.1521959,3.2015024-6.1521959,8.9127913,0,5.2729793,2.1348198,8.2855611,6.0265836,8.2855611,3.0756477,0,4.9587235-1.8195597,5.5231995-5.2724598h9.6041263Z"/>
  <path d="M75.7507779,17.196914c2.4475864-3.2634601,5.3975526-4.7697337,9.5400561-4.7697337,7.2811478,0,10.7961441,3.9543102,10.7961441,12.0514356v19.0811858h-9.9794739v-17.2608642c0-4.1432308-1.3180803-5.7123279-4.7705302-5.7123279-2.1343003,0-3.8917985,1.004344-4.8335961,2.7620846-.564476,1.0041016-.7526346,2.2594277-.7526346,5.0212699v15.1898722h-9.9805129V1.6936518h9.9805129v15.5033314l.0000346-.0000693Z"/>
  <path d="M136.5092276,17.2599798c2.4481059-3.3265259,5.6487425-4.8327995,9.9173777-4.8327995,3.7661862,0,7.0925043,1.5693049,8.8504873,4.0796454,1.3801765,1.9456914,1.819525,4.0797147,1.819525,8.2227723v18.830169h-9.9794047v-17.1980407c0-4.143023-1.3185998-5.7751859-4.5818521-5.7751859-3.8292867,0-5.6498507,2.1968813-5.6498507,6.77953v16.1936967h-9.9794047V13.2428462h9.603122v4.0171337Z"/>
  <path d="M170.2259223,43.5597671h-10.5449196v-10.4818537h10.5449196v10.4818537ZM170.1628564,11.9872776l-2.7618422,17.6377356h-4.895623l-2.7618422-17.4490229V1.6935826h10.4192727v10.2936604l.0000346.0000346Z"/>
  <path d="M127.579882,28.4319564c0,9.3519321-6.5905401,15.9425414-16.0060575,15.9425414-9.4779946,0-16.0680844-6.528063-16.0680844-15.9425414,0-9.5413029,6.4649625-16.0063346,16.0055381-16.0063346,9.6667073,0,16.0686039,6.3396619,16.0686039,16.0063346ZM109.7542994,7.969105h-8.850522V.6881996h8.8504873v7.2809054h.0000346ZM105.6117958,28.3688906c0,5.5862654,2.1338155,8.7249097,5.9620286,8.7249097,3.7667057,0,5.9005211-3.2011907,5.9005211-8.7249097,0-5.5239268-2.1338155-8.6620516-5.9005211-8.6620516-3.8281785,0-5.9620286,3.1381249-5.9620286,8.6620516ZM122.2448758,7.969105h-8.850522V.6881996h8.8504873v7.2809054h.0000346Z"/>
</svg>